HIERARCHY
ROOT hip
{
  OFFSET 71.8805 69.1507 180.771
  CHANNELS 6 Xposition Yposition Zposition Zrotation Xrotation Yrotation
  JOINT abdomen
  {
    OFFSET 0 20.6881 -0.73152
    CHANNELS 3 Zrotation Xrotation Yrotation
    JOINT chest
    {
      OFFSET 0 11.7043 -0.48768
      CHANNELS 3 Zrotation Xrotation Yrotation
      JOINT neck
      {
        OFFSET 0 22.1894 -2.19456
        CHANNELS 3 Zrotation Xrotation Yrotation
        JOINT head
        {
          OFFSET -0.24384 7.07133 1.2192
          CHANNELS 3 Zrotation Xrotation Yrotation
          JOINT leftEye
          {
            OFFSET 4.14528 8.04674 8.04672
            CHANNELS 3 Zrotation Xrotation Yrotation
            End Site
            {
              OFFSET 1 0 0
            }
          }
          JOINT rightEye
          {
            OFFSET -3.6576 8.04674 8.04672
            CHANNELS 3 Zrotation Xrotation Yrotation
            End Site
            {
              OFFSET 1 0 0
            }
          }
        }
      }
      JOINT rCollar
      {
        OFFSET -2.68224 19.2634 -4.8768
        CHANNELS 3 Zrotation Xrotation Yrotation
        JOINT rShldr
        {
          OFFSET -8.77824 -1.95073 1.46304
          CHANNELS 3 Zrotation Xrotation Yrotation
          JOINT rForeArm
          {
            OFFSET -28.1742 -1.7115 0.48768
            CHANNELS 3 Zrotation Xrotation Yrotation
            JOINT rHand
            {
              OFFSET -22.5879 0.773209 7.07136
              CHANNELS 3 Zrotation Xrotation Yrotation
              JOINT rThumb1
              {
                OFFSET -1.2192 -0.487915 3.41376
                CHANNELS 3 Zrotation Xrotation Yrotation
                JOINT rThumb2
                {
                  OFFSET -3.37035 -0.52449 3.41376
                  CHANNELS 3 Zrotation Xrotation Yrotation
                  End Site
                  {
                    OFFSET -1.78271 -1.18214 1.43049
                  }
                }
              }
              JOINT rIndex1
              {
                OFFSET -7.75947 0.938293 5.60832
                CHANNELS 3 Zrotation Xrotation Yrotation
                JOINT rIndex2
                {
                  OFFSET -2.54057 -0.884171 1.56538
                  CHANNELS 3 Zrotation Xrotation Yrotation
                  End Site
                  {
                    OFFSET -1.62519 -0.234802 1.16502
                  }
                }
              }
              JOINT rMid1
              {
                OFFSET -8.24714 1.18213 3.41376
                CHANNELS 3 Zrotation Xrotation Yrotation
                JOINT rMid2
                {
                  OFFSET -3.10165 -0.590103 1.0647
                  CHANNELS 3 Zrotation Xrotation Yrotation
                  End Site
                  {
                    OFFSET -2.48547 -0.328903 0.83742
                  }
                }
              }
              JOINT rRing1
              {
                OFFSET -8.82822 0.546677 1.51678
                CHANNELS 3 Zrotation Xrotation Yrotation
                JOINT rRing2
                {
                  OFFSET -2.60934 -0.819778 -0.0198488
                  CHANNELS 3 Zrotation Xrotation Yrotation
                  End Site
                  {
                    OFFSET -2.33842 -0.294052 0.168128
                  }
                }
              }
              JOINT rPinky1
              {
                OFFSET -8.27202 -0.0477905 -0.4584
                CHANNELS 3 Zrotation Xrotation Yrotation
                JOINT rPinky2
                {
                  OFFSET -1.82734 -0.647385 -0.700984
                  CHANNELS 3 Zrotation Xrotation Yrotation
                  End Site
                  {
                    OFFSET -1.69225 -0.51767 -0.607171
                  }
                }
              }
            }
          }
        }
      }
      JOINT lCollar
      {
        OFFSET 2.68224 19.2634 -4.8768
        CHANNELS 3 Zrotation Xrotation Yrotation
        JOINT lShldr
        {
          OFFSET 8.77824 -1.95073 1.46304
          CHANNELS 3 Zrotation Xrotation Yrotation
          JOINT lForeArm
          {
            OFFSET 28.1742 -1.7115 0.48768
            CHANNELS 3 Zrotation Xrotation Yrotation
            JOINT lHand
            {
              OFFSET 22.5879 0.773209 7.07136
              CHANNELS 3 Zrotation Xrotation Yrotation
              JOINT lThumb1
              {
                OFFSET 1.2192 -0.487915 3.41376
                CHANNELS 3 Zrotation Xrotation Yrotation
                JOINT lThumb2
                {
                  OFFSET 3.37035 -0.52449 3.41376
                  CHANNELS 3 Zrotation Xrotation Yrotation
                  End Site
                  {
                    OFFSET 1.78271 -1.18214 1.43049
                  }
                }
              }
              JOINT lIndex1
              {
                OFFSET 7.75947 0.938293 5.60832
                CHANNELS 3 Zrotation Xrotation Yrotation
                JOINT lIndex2
                {
                  OFFSET 2.54057 -0.884171 1.56538
                  CHANNELS 3 Zrotation Xrotation Yrotation
                  End Site
                  {
                    OFFSET 1.62519 -0.234802 1.16502
                  }
                }
              }
              JOINT lMid1
              {
                OFFSET 8.24714 1.18213 3.41376
                CHANNELS 3 Zrotation Xrotation Yrotation
                JOINT lMid2
                {
                  OFFSET 3.10165 -0.590103 1.0647
                  CHANNELS 3 Zrotation Xrotation Yrotation
                  End Site
                  {
                    OFFSET 2.48547 -0.328903 0.83742
                  }
                }
              }
              JOINT lRing1
              {
                OFFSET 8.82822 0.546677 1.51678
                CHANNELS 3 Zrotation Xrotation Yrotation
                JOINT lRing2
                {
                  OFFSET 2.60934 -0.819778 -0.0198488
                  CHANNELS 3 Zrotation Xrotation Yrotation
                  End Site
                  {
                    OFFSET 2.33842 -0.294052 0.168128
                  }
                }
              }
              JOINT lPinky1
              {
                OFFSET 8.27202 -0.0477905 -0.4584
                CHANNELS 3 Zrotation Xrotation Yrotation
                JOINT lPinky2
                {
                  OFFSET 1.82734 -0.647385 -0.700984
                  CHANNELS 3 Zrotation Xrotation Yrotation
                  End Site
                  {
                    OFFSET 1.69225 -0.51767 -0.607171
                  }
                }
              }
            }
          }
        }
      }
    }
  }
  JOINT rButtock
  {
    OFFSET -8.77824 4.35084 1.2192
    CHANNELS 3 Zrotation Xrotation Yrotation
    JOINT rThigh
    {
      OFFSET 0 -1.70687 -2.19456
      CHANNELS 3 Zrotation Xrotation Yrotation
      JOINT rShin
      {
        OFFSET 0 -36.8199 0.73152
        CHANNELS 3 Zrotation Xrotation Yrotation
        JOINT rFoot
        {
          OFFSET 0.73152 -45.1104 -5.12064
          CHANNELS 3 Zrotation Xrotation Yrotation
          End Site
          {
            OFFSET -1.1221 -3.69964 12.103
          }
        }
      }
    }
  }
  JOINT lButtock
  {
    OFFSET 8.77824 4.35084 1.2192
    CHANNELS 3 Zrotation Xrotation Yrotation
    JOINT lThigh
    {
      OFFSET 0 -1.70687 -2.19456
      CHANNELS 3 Zrotation Xrotation Yrotation
      JOINT lShin
      {
        OFFSET 0 -36.8199 0.73152
        CHANNELS 3 Zrotation Xrotation Yrotation
        JOINT lFoot
        {
          OFFSET -0.73152 -45.1104 -5.12064
          CHANNELS 3 Zrotation Xrotation Yrotation
          End Site
          {
            OFFSET 1.1221 -3.69964 12.103
          }
        }
      }
    }
  }
}
MOTION
Frames:	5
Frame Time:	0.00833333
253.834 84.7658 34.9913 0.292816 -0.000579799 -0.00500381 -0.385196 -0.00168814 -0.0109958 -0.106234 -0.00256713 -0.0184049 1.72947e-015 0 -5.59082e-017 5.23052e-015 3.18055e-015 -1.63066e-016 -0 0 0 -0 0 0 8.93243e-016 1.55301e-018 9.93923e-017 2.06543e-014 -1.92573e-016 3.97569e-016 3.16565e-013 -9.36276e-014 -9.54166e-015 3.60436e-012 9.62863e-014 -1.30403e-013 8.50324e-012 9.53071e-015 -2.70347e-013 1.46846e-011 1.90833e-014 -4.77083e-013 8.51156e-012 1.19271e-014 -2.76708e-013 7.73091 5.47488 0.417314 8.50445e-012 9.83984e-015 -2.73528e-013 2.90554 0.965183 0.102902 8.51651e-012 9.93923e-015 -2.75118e-013 10.2786 0.731801 0.0259123 8.50142e-012 1.11319e-014 -2.73528e-013 2.22167 -0.733487 -0.20892 8.95874e-016 2.13538e-018 -9.93923e-017 1.59311e-014 -2.91965e-016 -1.59028e-015 3.13881e-013 9.26337e-014 -1.90833e-014 3.60391e-012 -9.90196e-014 -1.01778e-013 8.50214e-012 -9.29341e-015 -2.8625e-013 1.46886e-011 -1.90833e-014 -4.79469e-013 8.49606e-012 -6.75868e-015 -2.73528e-013 -7.73091 5.47488 -0.417314 8.50078e-012 -8.64713e-015 -2.83069e-013 -2.90554 0.965183 -0.102902 8.49545e-012 -8.74653e-015 -2.78299e-013 -10.2786 0.731801 -0.0259123 8.50898e-012 -9.1441e-015 -2.8625e-013 -2.22167 -0.733487 0.20892 -2.03217e-016 0 -3.88251e-019 0.221643 -2.58356 -0.0280808 -0.00748953 -0.87263 -0.0651396 -0.513104 3.45577 0.129346 2.03217e-016 0 3.88251e-019 -0.807782 -4.07084 0.0653915 0.0032558 1.82139 0.0244324 0.517718 2.24911 -0.105181 
249.912 83.4953 28.5663 -10.9719 21.1421 -25.8545 0.184067 -2.27808 0.513136 0.962672 -0.711261 0.11314 -1.43609 -0.442095 -0.26881 0.996601 -1.16425 -0.0998228 -0 0 0 -0 0 0 -2.93067e-015 -5.29211e-014 1.2129e-015 20.2015 2.48495 0.171064 -3.63774 -1.55193 5.78669 0.0282251 3.72811 0.519953 -2.19284e-011 -7.11966e-011 2.83258e-010 -3.45208e-011 -1.21696e-010 4.88988e-010 -2.19227e-011 -7.11935e-011 2.8325e-010 7.73091 5.47488 0.417314 -2.19287e-011 -7.11955e-011 2.83255e-010 2.90554 0.965183 0.102902 -2.19171e-011 -7.11954e-011 2.83253e-010 10.2786 0.731801 0.0259123 -2.19311e-011 -7.11941e-011 2.83258e-010 2.22167 -0.733487 -0.20892 -2.96315e-015 -5.29259e-014 1.04828e-015 -22.4743 1.95545 0.641481 3.66192 -1.56648 -5.821 -0.140022 8.31794 -1.12503 1.96474e-010 -2.4181e-010 -2.93834e-010 3.31907e-010 -4.16435e-010 -5.1141e-010 1.96468e-010 -2.41807e-010 -2.93823e-010 -7.73091 5.47488 -0.417314 1.96471e-010 -2.4181e-010 -2.9383e-010 -2.90554 0.965183 -0.102902 1.96465e-010 -2.41809e-010 -2.93827e-010 -10.2786 0.731801 -0.0259123 1.96481e-010 -2.4181e-010 -2.93833e-010 -2.22167 -0.733487 0.20892 -2.03217e-016 0 -3.88251e-019 1.01568 -5.15227 0.446145 -0.00505424 3.29633 0.0158123 -0.737475 0.87454 -3.68193 2.03217e-016 0 3.88251e-019 0.309579 -6.19661 -1.64049 0.00173316 4.97373 -0.0267866 0.51693 0.0138629 0.235859 
249.874 83.4906 28.5348 -3.31117 28.8776 -60.0717 0.831566 -4.68571 1.0687 2.09526 -1.46258 0.251894 -2.94601 -0.900758 -0.552725 2.01477 -2.40954 -0.209974 -0 0 0 -0 0 0 -8.37116e-015 -1.24367e-013 2.14936e-015 41.5375 5.10571 0.365651 -7.1474 -3.14172 11.9224 -0.0161204 7.67004 1.07724 -4.08225e-011 -1.44467e-010 5.86254e-010 -6.3558e-011 -2.4677e-010 1.01188e-009 -4.08195e-011 -1.44463e-010 5.86244e-010 7.73091 5.47488 0.417314 -4.08243e-011 -1.44465e-010 5.86251e-010 2.90554 0.965183 0.102902 -4.08133e-011 -1.44465e-010 5.86249e-010 10.2786 0.731801 0.0259123 -4.08262e-011 -1.44464e-010 5.86257e-010 2.22167 -0.733487 -0.20892 -8.43906e-015 -1.24377e-013 2.02512e-015 -46.2763 4.0331 1.31907 7.19528 -3.17264 -11.9986 0.0818804 17.0845 -2.39379 3.99927e-010 -4.91594e-010 -5.89548e-010 6.758e-010 -8.46807e-010 -1.02642e-009 3.99919e-010 -4.91591e-010 -5.89539e-010 -7.73091 5.47488 -0.417314 3.99922e-010 -4.91594e-010 -5.89543e-010 -2.90554 0.965183 -0.102902 3.99915e-010 -4.91593e-010 -5.89541e-010 -10.2786 0.731801 -0.0259123 3.99933e-010 -4.91594e-010 -5.89546e-010 -2.22167 -0.733487 0.20892 -2.03217e-016 0 -3.88251e-019 1.89841 -7.86928 0.948707 -0.0153645 7.7056 0.10226 -1.34613 -1.83299 -7.70702 2.03217e-016 0 3.88251e-019 1.34974 -8.43459 -3.46189 0.0063974 8.30611 -0.0815591 0.545008 -2.34617 0.595996 
249.827 83.4869 28.5065 5.56847 16.8645 -83.5838 1.44828 -6.82858 1.57133 3.11025 -2.12861 0.376465 -4.32071 -1.32617 -0.806623 2.97761 -3.49272 -0.299964 -0 0 0 -0 0 0 -1.05785e-014 -1.58766e-013 3.43991e-015 60.5596 7.45459 0.517079 -9.98636 -4.46618 17.4082 -0.121633 11.1806 1.58668 -8.27918e-011 -2.13609e-010 8.50315e-010 -1.32932e-010 -3.65127e-010 1.46792e-009 -8.27912e-011 -2.13604e-010 8.50302e-010 7.73091 5.47488 0.417314 -8.2795e-011 -2.13606e-010 8.50311e-010 2.90554 0.965183 0.102902 -8.27845e-011 -2.13606e-010 8.50309e-010 10.2786 0.731801 0.0259123 -8.27963e-011 -2.13605e-010 8.5032e-010 2.22167 -0.733487 -0.20892 -1.06812e-014 -1.58782e-013 3.34362e-015 -67.5549 5.86341 1.93344 10.0448 -4.50577 -17.5123 0.644685 24.9133 -3.68267 5.72419e-010 -7.25411e-010 -8.8093e-010 9.66343e-010 -1.24927e-009 -1.53327e-009 5.72411e-010 -7.25409e-010 -8.80923e-010 -7.73091 5.47488 -0.417314 5.72412e-010 -7.25412e-010 -8.80924e-010 -2.90554 0.965183 -0.102902 5.72406e-010 -7.2541e-010 -8.80923e-010 -10.2786 0.731801 -0.0259123 5.72425e-010 -7.25411e-010 -8.80927e-010 -2.22167 -0.733487 0.20892 -2.03217e-016 0 -3.88251e-019 2.7332 -10.2871 1.41183 -0.0360114 11.6342 0.181348 -2.21148 -4.1993 -11.3336 2.03217e-016 0 3.88251e-019 2.15925 -10.4151 -5.10752 0.0158734 11.2784 -0.131436 0.595309 -4.45607 0.920559 
249.788 83.4775 28.462 7.88509 2.23562 -89.7994 1.89937 -8.31168 1.93218 3.82433 -2.58146 0.465351 -5.34899 -1.66855 -0.985318 3.81182 -4.17069 -0.339004 -0 0 0 -0 0 0 -4.70293e-015 -1.00552e-013 5.61567e-015 73.8339 9.12411 0.556282 -11.7997 -5.30916 21.223 -0.232934 13.6164 1.95089 -1.82449e-010 -2.7243e-010 1.01703e-009 -3.03146e-010 -4.66689e-010 1.75685e-009 -1.8245e-010 -2.72425e-010 1.01702e-009 7.73091 5.47488 0.417314 -1.82453e-010 -2.72427e-010 1.01703e-009 2.90554 0.965183 0.102902 -1.82443e-010 -2.72427e-010 1.01703e-009 10.2786 0.731801 0.0259123 -1.82454e-010 -2.72425e-010 1.01704e-009 2.22167 -0.733487 -0.20892 -4.83895e-015 -1.0057e-013 5.51627e-015 -82.4316 7.07815 2.38107 11.8491 -5.34345 -21.3183 1.28909 30.4353 -4.73638 6.67511e-010 -9.19314e-010 -1.16148e-009 1.12351e-009 -1.58194e-009 -2.01971e-009 6.67502e-010 -9.19312e-010 -1.16147e-009 -7.73091 5.47488 -0.417314 6.67503e-010 -9.19315e-010 -1.16147e-009 -2.90554 0.965183 -0.102902 6.67496e-010 -9.19313e-010 -1.16147e-009 -10.2786 0.731801 -0.0259123 6.67516e-010 -9.19314e-010 -1.16148e-009 -2.22167 -0.733487 0.20892 -2.03217e-016 0 -3.88251e-019 3.35777 -11.9591 1.76156 -0.0570036 14.3612 0.23819 -3.00028 -5.80785 -13.9206 2.03217e-016 0 3.88251e-019 2.66568 -11.7809 -6.26757 0.0251622 13.3505 -0.167045 0.645175 -5.94124 1.15285 
